Coordinates
version=1
nRows=16
nColumns=22
inDegrees=yes

Units are S.I. units (second, meters, Newtons, ...)
If the header above contains a line with 'inDegrees', this indicates whether rotational values are in degrees (yes) or radians (no).

endheader
time	pelvis_tilt	pelvis_list	pelvis_rotation	pelvis_tx	pelvis_ty	pelvis_tz	hip_flexion_r	hip_adduction_r	hip_rotation_r	knee_angle_r	ankle_angle_r	subtalar_angle_r	hip_flexion_l	hip_adduction_l	hip_rotation_l	knee_angle_l	ankle_angle_l	subtalar_angle_l	lumbar_extension	lumbar_bending	lumbar_rotation
      1.22000000	      0.42351816	     -4.66056800	     -2.36541565	     -1.26336522	      1.00972691	      0.60489800	     22.89658572	      2.98730208	      2.80680485	    -30.95370754	     11.20820098	      3.87101259	     -0.63810770	      0.87974962	     -7.10416685	    -16.11027211	     18.45449392	     -9.09940095	    -15.16905835	      3.14922066	     -0.47063790
      1.23000000	      0.43701167	     -4.70725127	     -2.06016970	     -1.25983203	      1.00935161	      0.60434368	     23.25686493	      3.08638450	      2.94671961	    -30.36681426	     10.93881504	      4.09118378	     -0.88846981	      0.83777817	     -6.84515684	    -16.04370526	     18.61483499	     -9.03509441	    -15.23910796	      3.18457220	     -0.45496833
      1.24000000	      0.47693143	     -4.76327791	     -1.74409757	     -1.25619809	      1.00899312	      0.60377621	     23.57392429	      3.19292819	      3.05744679	    -29.77324820	     10.72199018	      4.44265315	     -1.16700572	      0.78167894	     -6.60053638	    -15.98826204	     18.78892006	     -8.94710280	    -15.34113778	      3.23985029	     -0.46459525
      1.25000000	      0.50177605	     -4.80744018	     -1.44356443	     -1.25246234	      1.00857911	      0.60326218	     23.91177264	      3.29505503	      3.12996044	    -29.20340774	     10.47894297	      4.69308997	     -1.44400038	      0.73646129	     -6.35572356	    -15.91751093	     18.97089699	     -8.88207927	    -15.42114220	      3.27503101	     -0.42979504
      1.26000000	      0.52975809	     -4.84372464	     -1.14594665	     -1.24863076	      1.00813486	      0.60278049	     24.24688427	      3.39054570	      3.15436887	    -28.65523838	     10.23682231	      4.91389791	     -1.72990407	      0.69543818	     -6.11096039	    -15.84831772	     19.16141576	     -8.82141984	    -15.50328669	      3.29668618	     -0.36871063
      1.27000000	      0.57248967	     -4.88151520	     -0.83907420	     -1.24468212	      1.00768449	      0.60228259	     24.55182724	      3.48624250	      3.14771596	    -28.11052304	     10.02487486	      5.17301380	     -2.04260302	      0.64984839	     -5.87194898	    -15.76998262	     19.36060169	     -8.74655990	    -15.59891558	      3.33039988	     -0.32658237
      1.28000000	      0.61541595	     -4.90660567	     -0.53766489	     -1.24062576	      1.00719856	      0.60181829	     24.85169415	      3.57549633	      3.11638423	    -27.58469948	      9.80784812	      5.40360309	     -2.36564645	      0.61394739	     -5.63890798	    -15.68624353	     19.55881202	     -8.67041321	    -15.69015249	      3.34595766	     -0.27317662
      1.29000000	      0.66498471	     -4.92639980	     -0.23571167	     -1.23643228	      1.00668911	      0.60137921	     25.13161986	      3.66468834	      3.05981704	    -27.07123949	      9.60311576	      5.63480895	     -2.71471693	      0.57874716	     -5.41476647	    -15.58195214	     19.75685514	     -8.58268199	    -15.77941434	      3.35598534	     -0.22999020
      1.30000000	      0.70609057	     -4.92809387	      0.06641392	     -1.23216534	      1.00612584	      0.60094292	     25.41278754	      3.74226972	      2.99967820	    -26.57298818	      9.36684214	      5.81582936	     -3.05354457	      0.56007523	     -5.18330961	    -15.48970237	     19.94903433	     -8.50205530	    -15.86086760	      3.34987121	     -0.17180015
      1.31000000	      0.74883400	     -4.92169064	      0.37039171	     -1.22775948	      1.00552513	      0.60053994	     25.67310329	      3.82145847	      2.93698222	    -26.08157927	      9.13642616	      5.99157745	     -3.41084310	      0.54381694	     -4.95102352	    -15.38304029	     20.13810728	     -8.41446396	    -15.93299028	      3.33207542	     -0.12363196
      1.32000000	      0.79790007	     -4.90816603	      0.67915783	     -1.22322317	      1.00489327	      0.60014130	     25.90342301	      3.90310039	      2.88984989	    -25.59213710	      8.91620608	      6.18411460	     -3.79066521	      0.53040299	     -4.72030146	    -15.26214477	     20.32115035	     -8.31202994	    -16.00468801	      3.31175958	     -0.08898658
      1.33000000	      0.83164299	     -4.87547183	      0.99159393	     -1.21860554	      1.00419286	      0.59976976	     26.12804929	      3.97999622	      2.88598292	    -25.10556132	      8.67251912	      6.35457522	     -4.14829854	      0.53115204	     -4.47103863	    -15.16442573	     20.49286266	     -8.22097772	    -16.05858232	      3.26821681	     -0.04826702
      1.34000000	      0.85462754	     -4.82771232	      1.31051309	     -1.21388240	      1.00342554	      0.59941097	     26.33665875	      4.05539817	      2.93125300	    -24.61960569	      8.42553107	      6.52783246	     -4.49894634	      0.54260820	     -4.20461397	    -15.07272289	     20.66005560	     -8.13487682	    -16.09616483	      3.21021354	     -0.00631297
      1.35000000	      0.88621816	     -4.77649741	      1.64315358	     -1.20901187	      1.00262648	      0.59907951	     26.49152923	      4.14452762	      3.05553690	    -24.12035244	      8.22903767	      6.76751218	     -4.86551944	      0.54717993	     -3.93141596	    -14.98611370	     20.82777817	     -8.03244064	    -16.13282570	      3.14922044	      0.00289902
      1.36000000	      0.89083661	     -4.70572173	      1.97822014	     -1.20403416	      1.00173106	      0.59878413	     26.64643039	      4.22977399	      3.24405942	    -23.63330310	      8.00459148	      6.99494474	     -5.20571707	      0.56695820	     -3.63063852	    -14.91102737	     20.99563755	     -7.94568018	    -16.13505079	      3.06235777	      0.03674438
      1.37000000	      0.88752934	     -4.62787186	      2.33015103	     -1.19893294	      1.00077202	      0.59849771	     26.76249934	      4.32126313	      3.52632428	    -23.14232061	      7.81230177	      7.25048259	     -5.53836555	      0.58517847	     -3.31005889	    -14.84776365	     21.17445534	     -7.85813842	    -16.12482249	      2.97115102	      0.05060197
